<?xml version="1.0" standalone="no"?>
<!DOCTYPE svg PUBLIC "-//W3C//DTD SVG 20010904//EN"
 "http://www.w3.org/TR/2001/REC-SVG-20010904/DTD/svg10.dtd">
<svg version="1.0" xmlns="http://www.w3.org/2000/svg"
 width="512.000000pt" height="512.000000pt" viewBox="0 0 512.000000 512.000000"
 preserveAspectRatio="xMidYMid meet">

<g transform="translate(0.000000,512.000000) scale(0.100000,-0.100000)"
fill="#000000" stroke="none">
<path d="M1153 3920 c-26 -10 -32 -57 -11 -78 9 -9 72 -12 220 -12 165 0 216
-3 245 -15 44 -19 70 -41 88 -75 7 -14 115 -421 240 -905 125 -484 234 -888
243 -897 14 -17 79 -18 1097 -18 1035 0 1083 1 1098 18 22 24 21 38 -3 62 -20
20 -33 20 -1069 20 l-1050 0 -15 53 c-8 28 -26 99 -41 157 -14 58 -28 113 -31
122 -5 16 60 18 1098 20 920 3 1109 6 1141 18 51 18 120 80 142 126 18 38 250
810 261 870 3 19 3 49 0 68 -9 48 -75 120 -124 134 -29 9 -392 12 -1440 12
l-1401 0 -16 58 c-40 146 -78 202 -163 244 -44 22 -60 23 -267 25 -122 2 -230
-2 -242 -7z m3528 -449 c16 -16 29 -39 29 -51 0 -32 -239 -830 -259 -865 -9
-16 -32 -40 -51 -52 l-33 -23 -1118 0 -1118 0 -10 38 c-5 20 -64 245 -130 500
-67 255 -121 467 -121 472 0 6 516 10 1391 10 l1391 0 29 -29z"/>
<path d="M327 3282 c-22 -24 -21 -45 1 -65 17 -15 68 -17 535 -17 l517 0 16
25 c15 23 15 27 0 50 l-16 25 -519 0 c-489 0 -519 -1 -534 -18z"/>
<path d="M380 2870 c-25 -25 -25 -42 -2 -63 17 -15 68 -17 534 -17 486 0 516
1 531 18 22 24 21 38 -3 62 -19 19 -33 20 -530 20 -497 0 -511 -1 -530 -20z"/>
<path d="M452 2464 c-25 -17 -29 -56 -8 -73 20 -16 1042 -16 1062 0 21 17 17
56 -8 73 -20 14 -86 16 -523 16 -437 0 -503 -2 -523 -16z"/>
<path d="M2507 1756 c-142 -39 -237 -190 -207 -329 30 -140 140 -230 282 -230
116 0 218 69 264 179 22 51 22 157 0 208 -56 133 -206 209 -339 172z m161
-113 c107 -50 129 -206 42 -293 -132 -132 -354 -5 -309 177 29 115 154 169
267 116z"/>
<path d="M3860 1761 c-89 -19 -179 -95 -210 -179 -78 -209 99 -421 319 -380
178 32 283 232 207 393 -57 120 -194 192 -316 166z m140 -116 c14 -7 37 -26
52 -42 110 -116 25 -306 -137 -306 -172 0 -251 207 -121 321 20 17 49 34 64
38 15 3 32 7 37 9 16 5 78 -7 105 -20z"/>
</g>
</svg>
